<svg width="32" height="32" viewBox="0 0 32 32" fill="none" xmlns="http://www.w3.org/2000/svg">
  <rect width="32" height="32" rx="8" fill="#FF385C"/>
  <path d="M16 6C12.6863 6 10 8.68629 10 12C10 15.3137 12.6863 18 16 18C19.3137 18 22 15.3137 22 12C22 8.68629 19.3137 6 16 6ZM8 12C8 7.58172 11.5817 4 16 4C20.4183 4 24 7.58172 24 12C24 16.4183 20.4183 20 16 20C11.5817 20 8 16.4183 8 12Z" fill="white"/>
  <path d="M10.5 21C9.67157 21 9 21.6716 9 22.5V25.5C9 26.3284 9.67157 27 10.5 27H21.5C22.3284 27 23 26.3284 23 25.5V22.5C23 21.6716 22.3284 21 21.5 21H10.5Z" fill="white"/>
</svg>